<svg viewBox="0 0 365 367" fill="none" xmlns="http://www.w3.org/2000/svg">
<path d="M105.699 62.3834L112.927 47.1125L129.671 49.2707L117.395 37.6704L124.623 22.3995L109.807 30.5009L97.531 18.9006L100.651 35.504L85.8348 43.6054L102.579 45.7636L105.699 62.3834ZM45.772 100.839L29.8123 106.349L39.491 92.5001L29.3304 79.0032L45.478 83.9408L55.1568 70.0924L55.459 86.9901L71.6066 91.9278L55.6468 97.4378L55.949 114.335L45.772 100.839ZM24.5604 174.651L12.8397 186.815L15.1838 170.081L0.00814819 162.682L16.6295 159.739L18.9737 143.005L26.9045 157.925L43.5341 154.982L31.8134 167.146L39.7442 182.065L24.5604 174.651ZM35.6604 249.337L31.1436 265.622L25.2302 249.795L8.36377 250.531L21.5792 240.01L15.6657 224.183L29.7469 233.511L42.9623 222.989L38.4456 239.274L52.5267 248.602L35.6604 249.337ZM80.926 312.906L84.381 329.444L71.868 318.097L57.2232 326.501L64.1413 311.083L51.6283 299.736L68.413 301.551L75.3311 286.133L78.786 302.671L95.5707 304.486L80.926 312.906ZM152.092 343.562L162.799 356.626L146.464 352.359L137.365 366.591L136.369 349.718L120.033 345.451L135.756 339.295L134.76 322.422L145.467 335.485L161.19 329.33L152.092 343.562ZM227.496 339.728L243.145 346.072L226.761 350.143L225.568 367L216.633 352.661L200.249 356.732L211.112 343.799L202.176 329.46L217.825 335.804L228.689 322.871L227.496 339.728ZM295.141 302.818L311.951 301.191L299.307 312.391L306.045 327.883L291.49 319.315L278.847 330.515L282.498 314.018L267.951 305.451L284.752 303.824L288.403 287.327L295.141 302.818ZM334.632 235.195L348.812 226.039L342.718 241.8L355.811 252.477L338.953 251.545L332.86 267.306L328.539 250.972L311.681 250.04L325.868 240.876L321.548 224.543L334.632 235.195ZM338.177 159.347L346.337 144.558L348.419 161.325L365 164.522L349.71 171.691L351.793 188.458L340.26 176.114L324.97 183.283L333.129 168.495L321.597 156.151L338.177 159.347ZM310.783 87.8567L311.411 70.9671L320.821 84.9954L337.066 80.3847L326.644 93.6773L336.054 107.706L320.2 101.893L309.77 115.186L310.399 98.2961L294.545 92.4837L310.783 87.8567ZM249.99 37.7521L242.925 22.3995L257.651 30.6644L270.05 19.1949L266.75 35.7656L281.477 44.0305L264.708 46.0089L261.409 62.5796L254.343 47.2269L237.575 49.2053L249.99 37.7521ZM161.607 16.0557L178.481 16.0639H178.49L183.717 0L188.928 16.072L205.811 16.0802L192.146 26.0047L197.357 42.0767L183.701 32.1359L170.036 42.0685L175.263 25.9965L161.607 16.0557Z" fill="white"/>
</svg>
